<?xml version="1.0" encoding="UTF-8"?>
<svg version="1.1" xmlns="http://www.w3.org/2000/svg" width="128" height="128">
<path d="M0 0 C3.61393308 0.58415469 6.42476184 1.55480398 9.64453125 3.28515625 C10.78305542 3.89049194 10.78305542 3.89049194 11.94458008 4.50805664 C12.89099365 5.02102295 13.83740723 5.53398926 14.8125 6.0625 C17.844375 7.691875 20.87625 9.32125 24 11 C24 20.57 24 30.14 24 40 C21 39 18 38 15 37 C12.03 42.28 9.06 47.56 6 53 C9.31633204 55.48724903 12.29373156 57.23109915 16 59 C16 59.66 16 60.32 16 61 C12.16095608 63.05056646 8.30174838 65.05989299 4.4375 67.0625 C3.35146484 67.64322266 2.26542969 68.22394531 1.14648438 68.82226562 C-6.84890276 72.92931859 -6.84890276 72.92931859 -11.5625 73.21875 C-16.74754622 71.38041543 -21.56397173 68.97731532 -26.4375 66.4375 C-27.45521484 65.91736328 -28.47292969 65.39722656 -29.52148438 64.86132812 C-32.01911737 63.58319669 -34.51157514 62.29594187 -37 61 C-37 60.34 -37 59.68 -37 59 C-33.32510107 56.97618162 -29.63328024 54.98539192 -25.9375 53 C-24.89916016 52.42765625 -23.86082031 51.8553125 -22.79101562 51.265625 C-12.93933892 46.01139742 -12.93933892 46.01139742 -7 47 C-4.5625 48 -4.5625 48 -3 49 C-1.68417937 46.73103368 -0.37224764 44.45996813 0.9375 42.1875 C1.31068359 41.54490234 1.68386719 40.90230469 2.06835938 40.24023438 C3.63466635 37.51683576 5.00369374 34.98891878 6 32 C5.195625 31.54625 4.39125 31.0925 3.5625 30.625 C1 29 1 29 0 27 C-0.08527628 24.96767366 -0.10716135 22.93252994 -0.09765625 20.8984375 C-0.09443359 19.68671875 -0.09121094 18.475 -0.08789062 17.2265625 C-0.07532227 15.32003906 -0.07532227 15.32003906 -0.0625 13.375 C-0.05798828 12.09625 -0.05347656 10.8175 -0.04882812 9.5 C-0.03701203 6.33328708 -0.02053815 3.16666644 0 0 Z " fill="#B91B1A" transform="translate(37,21)"/>
<path d="M0 0 C0.11608127 4.41644598 0.1872132 8.83250017 0.25 13.25 C0.30027344 15.13138672 0.30027344 15.13138672 0.3515625 17.05078125 C0.36445312 18.25605469 0.37734375 19.46132813 0.390625 20.703125 C0.41157227 21.81333008 0.43251953 22.92353516 0.45410156 24.06738281 C-0.10407596 27.67212924 -1.23171249 28.71818979 -4 31 C-4.66 31.66 -5.32 32.32 -6 33 C-1.545 40.92 -1.545 40.92 3 49 C4.32 48.34 5.64 47.68 7 47 C14.30370431 45.78429889 19.6916532 49.55722411 25.9375 53 C27.00291016 53.57234375 28.06832031 54.1446875 29.16601562 54.734375 C31.78460929 56.1434837 34.39524284 57.5655237 37 59 C37 59.66 37 60.32 37 61 C33.112444 63.01639874 29.21371684 65.01017774 25.3125 67 C23.65831055 67.85851562 23.65831055 67.85851562 21.97070312 68.734375 C20.90400391 69.27578125 19.83730469 69.8171875 18.73828125 70.375 C17.75899658 70.87773438 16.77971191 71.38046875 15.77075195 71.8984375 C12.02866677 73.38617107 9.53318794 73.5977488 5.76757812 72.12963867 C5.02958984 71.7297876 4.29160156 71.32993652 3.53125 70.91796875 C2.71269531 70.48033203 1.89414063 70.04269531 1.05078125 69.59179688 C0.20902344 69.12837891 -0.63273437 68.66496094 -1.5 68.1875 C-2.76263672 67.50977539 -2.76263672 67.50977539 -4.05078125 66.81835938 C-8.09237732 64.63844339 -12.09055299 62.41135973 -16 60 C-12.87174639 57.47333362 -9.60475502 55.76287335 -6 54 C-7.28724818 51.53926045 -8.57955313 49.08141829 -9.875 46.625 C-10.23980469 45.92632812 -10.60460937 45.22765625 -10.98046875 44.5078125 C-13.10315095 40.48015204 -13.10315095 40.48015204 -16 37 C-16.94875 37.495 -17.8975 37.99 -18.875 38.5 C-22 40 -22 40 -24 40 C-24 30.43 -24 20.86 -24 11 C-16.3125 7.1875 -16.3125 7.1875 -13.91918945 6.00463867 C-10.91798133 4.50991636 -8.01813113 3.01127881 -5.16796875 1.23828125 C-3 0 -3 0 0 0 Z " fill="#B91B1A" transform="translate(91,21)"/>
<path d="M0 0 C0 2.97 0 5.94 0 9 C7.26 9 14.52 9 22 9 C22 6.03 22 3.06 22 0 C25.47598164 0.57977557 28.29104698 1.46521105 31.42578125 3.06640625 C32.14419189 3.42935791 32.86260254 3.79230957 33.6027832 4.16625977 C34.49698975 4.62701904 35.39119629 5.08777832 36.3125 5.5625 C40.6128125 7.7590625 40.6128125 7.7590625 45 10 C45 19.57 45 29.14 45 39 C41.13405923 38.22681185 39.10504559 37.73073575 35.828125 35.96875 C35.08175781 35.57042969 34.33539063 35.17210937 33.56640625 34.76171875 C32.80199219 34.34535156 32.03757813 33.92898437 31.25 33.5 C30.08017578 32.87544922 30.08017578 32.87544922 28.88671875 32.23828125 C23.16171288 29.16171288 23.16171288 29.16171288 22 28 C22 24.37 22 20.74 22 17 C14.74 17 7.48 17 0 17 C0 20.63 0 24.26 0 28 C-2.86685824 30.48093502 -4.63783314 31.52617343 -8 33 C-10.10430718 34.10389885 -12.20846874 35.20807533 -14.3125 36.3125 C-19.59949622 39 -19.59949622 39 -23 39 C-23.34991653 34.4811421 -23.56197556 29.96575537 -23.75 25.4375 C-23.85054687 24.16068359 -23.95109375 22.88386719 -24.0546875 21.56835938 C-24.17485329 17.71304037 -24.12559999 14.69613915 -23 11 C-19.39519703 7.65604157 -15.50822152 5.86851302 -11 4 C-9.47421241 3.19684216 -7.95252486 2.38578 -6.4375 1.5625 C-3 0 -3 0 0 0 Z " fill="#B91B1A" transform="translate(53,89)"/>
<path d="M0 0 C0.93215332 0.50273438 1.86430664 1.00546875 2.82470703 1.5234375 C3.84306641 2.06484375 4.86142578 2.60625 5.91064453 3.1640625 C6.95736328 3.73640625 8.00408203 4.30875 9.08251953 4.8984375 C10.15244141 5.47078125 11.22236328 6.043125 12.32470703 6.6328125 C14.95845664 8.04374979 17.58551424 9.46582817 20.20751953 10.8984375 C18.66134177 15.53697079 15.03826982 16.37379032 10.83251953 18.52539062 C9.71876953 19.08162109 8.60501953 19.63785156 7.45751953 20.2109375 C6.35923828 20.78650391 5.26095703 21.36207031 4.12939453 21.95507812 C2.53611328 22.75655273 2.53611328 22.75655273 0.91064453 23.57421875 C-0.54873535 24.3153894 -0.54873535 24.3153894 -2.03759766 25.0715332 C-5.47290735 26.1026741 -6.67518183 25.54935528 -9.79248047 23.8984375 C-10.75335571 23.44609741 -10.75335571 23.44609741 -11.73364258 22.98461914 C-12.33958252 22.67903076 -12.94552246 22.37344238 -13.56982422 22.05859375 C-14.24851562 21.71763672 -14.92720703 21.37667969 -15.62646484 21.02539062 C-16.66770508 20.49848633 -16.66770508 20.49848633 -17.72998047 19.9609375 C-18.42027344 19.61353516 -19.11056641 19.26613281 -19.82177734 18.90820312 C-21.17421668 18.22749669 -22.52628033 17.54604323 -23.87792969 16.86376953 C-26.51275645 15.53526851 -29.15238073 14.21642156 -31.79248047 12.8984375 C-31.79248047 12.2384375 -31.79248047 11.5784375 -31.79248047 10.8984375 C-28.09486527 8.87813721 -24.38282275 6.88592181 -20.66748047 4.8984375 C-19.62076172 4.32609375 -18.57404297 3.75375 -17.49560547 3.1640625 C-16.47724609 2.62265625 -15.45888672 2.08125 -14.40966797 1.5234375 C-13.47751465 1.02070312 -12.54536133 0.51796875 -11.58496094 0 C-7.31661948 -1.68375211 -4.26834146 -1.68375211 0 0 Z " fill="#BA1B1A" transform="translate(69.79248046875,1.1015625)"/>
<path d="M0 0 C3.54175674 1.13921337 6.94642556 2.34367988 10.3046875 3.9453125 C11.31764893 4.42508545 11.31764893 4.42508545 12.35107422 4.91455078 C13.18396973 5.31399902 14.01686523 5.71344727 14.875 6.125 C17.55625 7.40375 20.2375 8.6825 23 10 C23 19.57 23 29.14 23 39 C19.13405923 38.22681185 17.10504559 37.73073575 13.828125 35.96875 C13.08175781 35.57042969 12.33539063 35.17210937 11.56640625 34.76171875 C10.41978516 34.13716797 10.41978516 34.13716797 9.25 33.5 C8.47011719 33.08363281 7.69023438 32.66726562 6.88671875 32.23828125 C1.16171288 29.16171288 1.16171288 29.16171288 0 28 C-0.08767112 25.92737924 -0.10695873 23.85179706 -0.09765625 21.77734375 C-0.09443359 20.51728516 -0.09121094 19.25722656 -0.08789062 17.95898438 C-0.07953403 16.61848891 -0.07106907 15.27799412 -0.0625 13.9375 C-0.0574866 12.59310058 -0.05292342 11.2486994 -0.04882812 9.90429688 C-0.03699488 6.60282059 -0.02050971 3.30143197 0 0 Z " fill="#B91B1B" transform="translate(0,89)"/>
<path d="M0 0 C0.23248586 4.56164082 0.37448143 9.12176219 0.5 13.6875 C0.60054687 15.62786133 0.60054687 15.62786133 0.703125 17.60742188 C0.89596071 26.93584945 0.89596071 26.93584945 -1.59448242 29.89379883 C-3.68186191 31.21609696 -5.69271832 32.12479722 -8 33 C-9.08925781 33.59425781 -10.17851563 34.18851563 -11.30078125 34.80078125 C-12.29464844 35.29964844 -13.28851563 35.79851562 -14.3125 36.3125 C-15.31925781 36.82425781 -16.32601562 37.33601563 -17.36328125 37.86328125 C-20 39 -20 39 -23 39 C-23 29.76 -23 20.52 -23 11 C-18.359375 8.5559375 -18.359375 8.5559375 -13.625 6.0625 C-12.65127441 5.54953369 -11.67754883 5.03656738 -10.67431641 4.50805664 C-9.90780762 4.10449951 -9.14129883 3.70094238 -8.3515625 3.28515625 C-7.56604004 2.87144775 -6.78051758 2.45773926 -5.97119141 2.03149414 C-2.08899408 0 -2.08899408 0 0 0 Z " fill="#B91C1B" transform="translate(128,89)"/>
</svg>
